<svg width="44" height="27" viewBox="0 0 44 27" fill="none" xmlns="http://www.w3.org/2000/svg">
<path d="M8.1819 26.0453C6.80642 26.0453 5.53996 25.6843 4.38255 24.9622C3.23351 24.2401 2.31093 23.1444 1.6148 21.6751C0.927062 20.2057 0.583191 18.3543 0.583191 16.1209C0.583191 13.7867 0.943836 11.8892 1.66513 10.4282C2.3948 8.96725 3.33416 7.89672 4.48319 7.21662C5.64061 6.53652 6.85674 6.19647 8.13158 6.19647C9.08771 6.19647 9.92642 6.3644 10.6477 6.70025C11.369 7.02771 11.9729 7.46851 12.4593 8.02267C12.9458 8.56843 13.3148 9.16877 13.5664 9.82368H13.6671V0H20.6116V25.7934H13.7174V22.6196H13.5664C13.298 23.2746 12.9122 23.8623 12.409 24.3829C11.9142 24.895 11.3103 25.3023 10.5974 25.6045C9.89287 25.8984 9.08771 26.0453 8.1819 26.0453ZM10.7484 20.7053C11.3858 20.7053 11.9309 20.5206 12.3838 20.1511C12.8451 19.7733 13.1974 19.2443 13.4406 18.5642C13.6922 17.8757 13.818 17.0613 13.818 16.1209C13.818 15.1637 13.6922 14.3451 13.4406 13.665C13.1974 12.9765 12.8451 12.4517 12.3838 12.0907C11.9309 11.7212 11.3858 11.5365 10.7484 11.5365C10.1109 11.5365 9.56577 11.7212 9.11287 12.0907C8.66835 12.4517 8.32448 12.9765 8.08126 13.665C7.84642 14.3451 7.729 15.1637 7.729 16.1209C7.729 17.0781 7.84642 17.9009 8.08126 18.5894C8.32448 19.2695 8.66835 19.7943 9.11287 20.1637C9.56577 20.5248 10.1109 20.7053 10.7484 20.7053Z" fill="#5E60CE"/>
<path d="M33.3306 26.1461C31.2338 26.1461 29.439 25.7305 27.9461 24.8992C26.4532 24.0596 25.3083 22.8925 24.5116 21.398C23.7148 19.895 23.3164 18.1528 23.3164 16.1713C23.3164 14.1898 23.7148 12.4517 24.5116 10.9572C25.3083 9.45424 26.4532 8.28715 27.9461 7.45592C29.439 6.61629 31.2338 6.19647 33.3306 6.19647C35.4274 6.19647 37.2222 6.61629 38.7151 7.45592C40.208 8.28715 41.3529 9.45424 42.1496 10.9572C42.9464 12.4517 43.3448 14.1898 43.3448 16.1713C43.3448 18.1528 42.9464 19.895 42.1496 21.398C41.3529 22.8925 40.208 24.0596 38.7151 24.8992C37.2222 25.7305 35.4274 26.1461 33.3306 26.1461ZM33.3809 21.0076C33.968 21.0076 34.4754 20.8102 34.9032 20.4156C35.3309 20.021 35.6622 19.4584 35.8971 18.728C36.1319 17.9975 36.2493 17.1285 36.2493 16.1209C36.2493 15.105 36.1319 14.2359 35.8971 13.5139C35.6622 12.7834 35.3309 12.2208 34.9032 11.8262C34.4754 11.4316 33.968 11.2343 33.3809 11.2343C32.7603 11.2343 32.2277 11.4316 31.7832 11.8262C31.3387 12.2208 30.999 12.7834 30.7642 13.5139C30.5293 14.2359 30.4119 15.105 30.4119 16.1209C30.4119 17.1285 30.5293 17.9975 30.7642 18.728C30.999 19.4584 31.3387 20.021 31.7832 20.4156C32.2277 20.8102 32.7603 21.0076 33.3809 21.0076Z" fill="#5E60CE"/>
</svg>
