<svg width="36" height="26" viewBox="0 0 36 26" fill="none" xmlns="http://www.w3.org/2000/svg">
<path d="M13.3982 5.44836V10.4861H0.666565V5.44836H13.3982ZM3.13237 0.813599H10.0769V18.5718C10.0769 18.8405 10.123 19.0672 10.2153 19.2519C10.3075 19.4282 10.4501 19.5625 10.643 19.6549C10.8359 19.7389 11.0833 19.7809 11.3853 19.7809C11.5949 19.7809 11.8382 19.7557 12.115 19.7053C12.4001 19.6549 12.6098 19.6129 12.744 19.5793L13.7504 24.466C13.4401 24.5583 12.9956 24.6717 12.4169 24.806C11.8466 24.9404 11.1672 25.0285 10.3788 25.0705C8.78527 25.1545 7.44753 24.9908 6.3656 24.5793C5.28366 24.1595 4.47011 23.5004 3.92495 22.602C3.37979 21.7036 3.1156 20.5785 3.13237 19.2267V0.813599Z" fill="#4EA8DE"/>
<path d="M25.3341 25.1461C23.2373 25.1461 21.4424 24.7305 19.9495 23.8992C18.4566 23.0596 17.3118 21.8925 16.515 20.398C15.7183 18.895 15.3199 17.1528 15.3199 15.1713C15.3199 13.1898 15.7183 11.4517 16.515 9.95717C17.3118 8.45424 18.4566 7.28715 19.9495 6.45591C21.4424 5.61629 23.2373 5.19647 25.3341 5.19647C27.4308 5.19647 29.2257 5.61629 30.7186 6.45591C32.2115 7.28715 33.3563 8.45424 34.1531 9.95717C34.9499 11.4517 35.3483 13.1898 35.3483 15.1713C35.3483 17.1528 34.9499 18.895 34.1531 20.398C33.3563 21.8925 32.2115 23.0596 30.7186 23.8992C29.2257 24.7305 27.4308 25.1461 25.3341 25.1461ZM25.3844 20.0076C25.9715 20.0076 26.4789 19.8102 26.9066 19.4156C27.3344 19.021 27.6657 18.4584 27.9005 17.728C28.1354 16.9975 28.2528 16.1285 28.2528 15.1209C28.2528 14.105 28.1354 13.2359 27.9005 12.5139C27.6657 11.7834 27.3344 11.2208 26.9066 10.8262C26.4789 10.4316 25.9715 10.2343 25.3844 10.2343C24.7637 10.2343 24.2312 10.4316 23.7866 10.8262C23.3421 11.2208 23.0024 11.7834 22.7676 12.5139C22.5328 13.2359 22.4154 14.105 22.4154 15.1209C22.4154 16.1285 22.5328 16.9975 22.7676 17.728C23.0024 18.4584 23.3421 19.021 23.7866 19.4156C24.2312 19.8102 24.7637 20.0076 25.3844 20.0076Z" fill="#4EA8DE"/>
</svg>
